<?xml version="1.0" encoding="iso-8859-1"?>
<!-- Generator: Adobe Illustrator 19.0.0, SVG Export Plug-In . SVG Version: 6.00 Build 0)  -->
<svg version="1.1" id="Capa_1" xmlns="http://www.w3.org/2000/svg" xmlns:xlink="http://www.w3.org/1999/xlink" x="0px" y="0px"
	 viewBox="0 0 512 512" style="enable-background:new 0 0 512 512;" xml:space="preserve">
<path style="fill:#303C42;" d="M485.017,369.236C502.411,334.082,512,295.316,512,256C512,114.844,397.167,0,256,0S0,114.844,0,256
	s114.833,256,256,256c45.453,0,89.913-12.327,129.268-35.457l34.023,32.499c2.063,1.969,4.729,2.958,7.375,2.958
	c2.646,0,5.313-0.99,7.375-2.958l62.563-59.75c9.917-9.594,15.396-22.365,15.396-35.958
	C512,394.307,501.021,377.897,485.017,369.236z"/>
<path style="fill:#FED600;" d="M256,490.667C126.604,490.667,21.333,385.396,21.333,256S126.604,21.333,256,21.333
	S490.667,126.604,490.667,256c0,37.266-9.28,74.038-26.319,107.108c-1.505-0.128-2.954-0.441-4.493-0.441
	c-13.25,0-24.563,7.385-33.188,15.896c-8.625-8.51-19.938-15.896-33.188-15.896c-28.75,0-52.146,22.729-52.146,50.667
	c0,13.594,5.479,26.365,15.438,35.99l12.092,11.551C334.156,480.065,295.57,490.667,256,490.667z"/>
<g>
	<path style="fill:#303C42;" d="M326.854,352c8.875-7.823,14.479-19.271,14.479-32c0-23.531-19.146-42.667-42.667-42.667
		c-4.688,0-9.334,0.844-14.583,2.688c-7.833,2.865-14.604,7.917-19.438,14.438c-2.063,1.938-11.583,3.979-19.604,4.208
		c-5.875,0.177-10.521,5.073-10.354,10.958c0.146,5.792,4.875,10.375,10.646,10.375c0.083,0,0.188,0,0.271,0
		c8.167-0.219,28.021-1.875,36-12.625c2.5-3.354,5.875-5.885,9.958-7.365c16.083-5.719,28.438,6,28.438,19.99
		c0,11.76-9.563,21.333-21.333,21.333c-5.896,0-10.667,4.771-10.667,10.667c0,5.896,4.771,10.667,10.667,10.667
		C310.438,362.667,320,372.24,320,384c0,11.76-9.563,21.333-21.333,21.333c-2.229,0-4.542-0.438-7.25-1.396
		c-3.938-1.427-7.313-3.958-9.813-7.302c-7.979-10.76-27.833-12.417-36-12.635c-4.979-0.146-10.792,4.521-10.938,10.385
		c-0.146,5.896,4.5,10.792,10.396,10.948c7.833,0.198,17.521,2.292,19.417,4.021c5,6.708,11.771,11.76,19.958,14.74
		c4.896,1.729,9.542,2.573,14.229,2.573c23.521,0,42.667-19.135,42.667-42.667C341.333,371.271,335.729,359.823,326.854,352z"/>
	<path style="fill:#303C42;" d="M170.667,149.333c-35.292,0-64,28.708-64,64c0,5.896,4.771,10.667,10.667,10.667
		S128,219.229,128,213.333c0-23.531,19.146-42.667,42.667-42.667s42.667,19.135,42.667,42.667c0,5.896,4.771,10.667,10.667,10.667
		c5.896,0,10.667-4.771,10.667-10.667C234.667,178.042,205.958,149.333,170.667,149.333z"/>
	<path style="fill:#303C42;" d="M288,224c5.896,0,10.667-4.771,10.667-10.667c0-23.531,19.146-42.667,42.667-42.667
		S384,189.802,384,213.333c0,5.896,4.771,10.667,10.667,10.667c5.896,0,10.667-4.771,10.667-10.667c0-35.292-28.708-64-64-64
		s-64,28.708-64,64C277.333,219.229,282.104,224,288,224z"/>
</g>
<path style="fill:#EF4438;" d="M481.813,433.906l-55.146,52.677l-55.104-52.646c-5.729-5.531-8.896-12.844-8.896-20.604
	c0-16.177,13.813-29.333,30.813-29.333c7.292,0,16.313,6.26,24.75,17.188c4.042,5.229,12.833,5.229,16.875,0
	C443.542,390.26,452.563,384,459.854,384c17,0,30.813,13.156,30.813,29.333C490.667,421.094,487.5,428.406,481.813,433.906z"/>
<g>
	<path style="opacity:0.1;fill:#010101;enable-background:new    ;" d="M471.008,386.061c5.552,5.307,8.992,12.621,8.992,20.689
		c0,7.76-3.167,15.073-8.854,20.573l-53.258,50.874l8.779,8.387l55.146-52.677c5.688-5.5,8.854-12.813,8.854-20.573
		C490.667,400.909,482.49,390.331,471.008,386.061z"/>
	<path style="opacity:0.1;fill:#010101;enable-background:new    ;" d="M487.971,222.357c-0.781-5.405-1.579-10.807-2.724-16.086
		c-0.707-3.263-1.645-6.435-2.486-9.646c-1.229-4.69-2.478-9.37-3.986-13.939c-1.086-3.289-2.339-6.496-3.564-9.719
		c-1.654-4.348-3.365-8.667-5.266-12.887c-1.415-3.145-2.936-6.227-4.484-9.296c-2.092-4.147-4.286-8.229-6.615-12.23
		c-1.678-2.889-3.405-5.743-5.202-8.552c-2.578-4.026-5.301-7.947-8.113-11.801c-1.857-2.546-3.704-5.096-5.659-7.563
		c-3.158-3.982-6.499-7.802-9.902-11.569c-1.892-2.094-3.729-4.238-5.694-6.264c-3.96-4.078-8.137-7.932-12.382-11.717
		c-1.19-1.063-2.326-2.178-3.538-3.216c34.63,40.889,55.637,93.676,55.637,151.456c0,53.043-17.807,101.809-47.484,141.111
		c3.659,2.44,7.128,5.135,10.156,8.124c8.625-8.51,19.938-15.896,33.188-15.896c1.539,0,2.988,0.314,4.493,0.441
		c8.48-16.458,15.025-33.839,19.474-51.736c0.035-0.143,0.076-0.284,0.109-0.427c2.009-8.15,3.462-16.43,4.579-24.758
		c0.141-1.083,0.367-2.138,0.492-3.227c1.069-8.93,1.664-17.927,1.664-26.961c0-8.543-0.521-16.961-1.413-25.266
		C488.949,227.902,488.376,225.158,487.971,222.357z"/>
	<path style="opacity:0.1;fill:#010101;enable-background:new    ;" d="M287.332,488.336c28.496-4.039,56.069-13.383,81.531-27.462
		l-12.092-11.551c-4.906-4.742-8.698-10.258-11.31-16.249c-34.267,19.577-73.841,30.921-116.133,30.921
		c-57.78,0-110.568-21.008-151.457-55.638c1.039,1.212,2.156,2.349,3.219,3.54c3.784,4.243,7.639,8.422,11.716,12.38
		c2.025,1.964,4.167,3.799,6.26,5.69c3.768,3.406,7.591,6.749,11.576,9.908c2.465,1.952,5.012,3.799,7.553,5.652
		c3.858,2.815,7.783,5.54,11.813,8.122c2.803,1.794,5.655,3.514,8.538,5.191c4.007,2.332,8.096,4.53,12.25,6.626
		c3.063,1.544,6.138,3.063,9.275,4.474c4.23,1.906,8.557,3.621,12.915,5.277c3.212,1.221,6.41,2.471,9.689,3.553
		c4.585,1.513,9.28,2.766,13.984,3.997c3.197,0.837,6.354,1.771,9.602,2.475c5.285,1.146,10.691,1.947,16.104,2.728
		c2.798,0.405,5.543,0.978,8.371,1.281c8.303,0.892,16.721,1.413,25.264,1.413c9.549,0,19.034-0.681,28.428-1.888
		C285.406,488.66,286.358,488.466,287.332,488.336z"/>
</g>
<linearGradient id="SVGID_1_" gradientUnits="userSpaceOnUse" x1="-45.5775" y1="639.5572" x2="-21.8246" y2="628.4767" gradientTransform="matrix(21.3333 0 0 -21.3333 996.3334 13791.667)">
	<stop  offset="0" style="stop-color:#FFFFFF;stop-opacity:0.2"/>
	<stop  offset="1" style="stop-color:#FFFFFF;stop-opacity:0"/>
</linearGradient>
<path style="fill:url(#SVGID_1_);" d="M485.017,369.236C502.411,334.082,512,295.316,512,256C512,114.844,397.167,0,256,0
	S0,114.844,0,256s114.833,256,256,256c45.453,0,89.913-12.327,129.268-35.457l34.023,32.499c2.063,1.969,4.729,2.958,7.375,2.958
	c2.646,0,5.313-0.99,7.375-2.958l62.563-59.75c9.917-9.594,15.396-22.365,15.396-35.958
	C512,394.307,501.021,377.897,485.017,369.236z"/>
<g>
</g>
<g>
</g>
<g>
</g>
<g>
</g>
<g>
</g>
<g>
</g>
<g>
</g>
<g>
</g>
<g>
</g>
<g>
</g>
<g>
</g>
<g>
</g>
<g>
</g>
<g>
</g>
<g>
</g>
</svg>
