<?xml version="1.0" encoding="iso-8859-1"?>
<!-- Generator: Adobe Illustrator 19.0.0, SVG Export Plug-In . SVG Version: 6.00 Build 0)  -->
<svg version="1.1" id="Capa_1" xmlns="http://www.w3.org/2000/svg" xmlns:xlink="http://www.w3.org/1999/xlink" x="0px" y="0px"
	 viewBox="0 0 512 512" style="enable-background:new 0 0 512 512;" xml:space="preserve">
<path style="fill:#303C42;" d="M256,0C114.844,0,0,114.833,0,256s114.844,256,256,256s256-114.833,256-256S397.156,0,256,0z"/>
<path style="fill:#FED600;" d="M256,490.667C126.604,490.667,21.333,385.396,21.333,256S126.604,21.333,256,21.333
	S490.667,126.604,490.667,256S385.396,490.667,256,490.667z"/>
<path style="opacity:0.1;fill:#010101;enable-background:new    ;" d="M410.682,79.984c36.384,41.35,58.651,95.405,58.651,154.682
	c0,129.396-105.271,234.667-234.667,234.667c-59.277,0-113.332-22.267-154.682-58.651c43.038,48.911,105.897,79.984,176.016,79.984
	c129.396,0,234.667-105.271,234.667-234.667C490.667,185.882,459.594,123.022,410.682,79.984z"/>
<path style="fill:#303C42;" d="M405.333,96c-23.531,0-42.667,19.146-42.667,42.667v9.5l-47.854-50.125
	c-16.271-16.375-44.771-16.375-61.042,0c-6.313,6.354-10.25,14.188-11.813,22.417c-15.865-7.729-36.573-4.563-49.406,8.354
	c-13.323,13.396-16.073,33.458-8.24,49.604c-8.427,1.625-16.177,5.708-22.365,11.938c-0.509,0.512-0.858,1.115-1.336,1.646h-21.945
	c-5.896,0-10.667,4.771-10.667,10.667s4.771,10.667,10.667,10.667h11.421c-2.379,13.465,1.536,27.846,11.861,38.229l89.603,90.07
	c-75.306,1.674-118.598,43.655-120.426,45.492c-4.167,4.167-4.167,10.917,0,15.083c2.083,2.083,4.813,3.125,7.542,3.125
	s5.458-1.042,7.542-3.125c0.396-0.396,40.313-39.542,109.74-39.542c7.018-0.036,12.698,0.371,18.474,0.983
	c5.063,4.182,10.417,7.996,16.339,10.975c12.583,6.333,26.104,9.417,39.51,9.417c2.727,0,5.402-0.54,8.111-0.794
	c17.536,9.501,27.331,18.882,27.431,18.982c2.083,2.063,4.802,3.083,7.51,3.083c2.74,0,5.479-1.042,7.563-3.125
	c4.146-4.167,4.146-10.896-0.01-15.063c-0.307-0.307-5.479-5.129-14.167-11.329c9.371-4.303,18.199-10.056,25.792-17.691
	l33.323-33.521C440.125,310.229,448,291.146,448,270.854V138.667C448,115.146,428.865,96,405.333,96z"/>
<path style="fill:#FED600;" d="M426.667,270.854c0,14.604-5.667,28.333-15.969,38.688l-33.323,33.521
	c-20.323,20.438-51.302,25.417-77.031,12.521c-6.469-3.271-12.313-7.5-17.375-12.604L177.073,236.521
	c-8.531-8.583-8.531-22.542,0-31.125c4.104-4.125,9.573-6.396,15.396-6.396c5.625,0,10.917,2.125,14.979,6l38.667,38.875
	c4.156,4.188,10.885,4.167,15.083,0.042c4.177-4.146,4.198-10.896,0.042-15.083l-38.26-38.479c-0.188-0.188-0.385-0.375-0.573-0.563
	l-14.729-14.813c-8.531-8.583-8.531-22.542,0-31.125c8.208-8.25,22.583-8.25,30.792,0l14.75,14.833
	c0.177,0.188,0.365,0.375,0.552,0.563l38.26,38.458c4.146,4.167,10.896,4.167,15.083,0.042c4.177-4.146,4.198-10.917,0.042-15.083
	L268.5,143.792c-8.135-8.604-8-22.271,0.396-30.708c8.208-8.25,22.74-8.104,30.635-0.146l66.083,69.229
	c3.01,3.146,7.615,4.146,11.688,2.521c4.042-1.625,6.698-5.542,6.698-9.896v-36.125c0-11.771,9.573-21.333,21.333-21.333
	s21.333,9.563,21.333,21.333V270.854z"/>
<path style="opacity:0.1;fill:#010101;enable-background:new    ;" d="M414.042,119.292c1.206,2.672,1.952,5.585,1.952,8.702
	v132.188c0,14.604-5.667,28.333-15.969,38.688l-33.323,33.521c-20.323,20.438-51.302,25.417-77.031,12.521
	c-6.318-3.194-12.013-7.333-16.993-12.277l10.292,10.346c5.063,5.104,10.906,9.333,17.375,12.604
	c25.729,12.896,56.708,7.917,77.031-12.521l33.323-33.521c10.302-10.354,15.969-24.083,15.969-38.688V138.667
	C426.667,130.018,421.448,122.639,414.042,119.292z"/>
<linearGradient id="SVGID_1_" gradientUnits="userSpaceOnUse" x1="-45.5785" y1="639.5551" x2="-23.8277" y2="629.4137" gradientTransform="matrix(21.3333 0 0 -21.3333 996.3334 13791.667)">
	<stop  offset="0" style="stop-color:#FFFFFF;stop-opacity:0.2"/>
	<stop  offset="1" style="stop-color:#FFFFFF;stop-opacity:0"/>
</linearGradient>
<path style="fill:url(#SVGID_1_);" d="M256,0C114.844,0,0,114.833,0,256s114.844,256,256,256s256-114.833,256-256S397.156,0,256,0z"
	/>
<g>
</g>
<g>
</g>
<g>
</g>
<g>
</g>
<g>
</g>
<g>
</g>
<g>
</g>
<g>
</g>
<g>
</g>
<g>
</g>
<g>
</g>
<g>
</g>
<g>
</g>
<g>
</g>
<g>
</g>
</svg>
