<?xml version="1.0" encoding="iso-8859-1"?>
<!-- Generator: Adobe Illustrator 19.0.0, SVG Export Plug-In . SVG Version: 6.00 Build 0)  -->
<svg version="1.1" id="Capa_1" xmlns="http://www.w3.org/2000/svg" xmlns:xlink="http://www.w3.org/1999/xlink" x="0px" y="0px"
	 viewBox="0 0 512 512" style="enable-background:new 0 0 512 512;" xml:space="preserve">
<path style="fill:#303C42;" d="M256,0C114.833,0,0,114.844,0,256s114.833,256,256,256s256-114.844,256-256S397.167,0,256,0z"/>
<path style="fill:#FED600;" d="M256,490.667C126.604,490.667,21.333,385.396,21.333,256S126.604,21.333,256,21.333
	S490.667,126.604,490.667,256S385.396,490.667,256,490.667z"/>
<path style="opacity:0.1;fill:#010101;enable-background:new    ;" d="M407.888,77.445C442.798,118.421,464,171.411,464,229.333
	C464,358.729,358.729,464,229.333,464c-57.922,0-110.913-21.202-151.888-56.112c43.077,50.563,107.081,82.779,178.555,82.779
	c129.396,0,234.667-105.271,234.667-234.667C490.667,184.526,458.451,120.522,407.888,77.445z"/>
<g>
	<circle style="fill:#303C42;" cx="170.667" cy="213.333" r="21.333"/>
	<path style="fill:#303C42;" d="M288.021,384h-64.042c-5.896,0-10.667,4.771-10.667,10.667c0,5.896,4.771,10.667,10.667,10.667
		h64.042c5.896,0,10.667-4.771,10.667-10.667C298.688,388.771,293.917,384,288.021,384z"/>
	<path style="fill:#303C42;" d="M224.021,192c0.854,0,1.729-0.104,2.583-0.323c5.729-1.427,9.188-7.219,7.771-12.927
		c-4.396-17.552-23.354-50.75-63.688-50.75S111.396,161.198,107,178.75c-1.417,5.688,2.042,11.438,7.729,12.896
		c5.646,1.417,11.479-1.99,12.958-7.677c0.375-1.417,9.396-34.635,43-34.635s42.625,33.219,42.979,34.583
		C214.875,188.771,219.229,192,224.021,192z"/>
	<circle style="fill:#303C42;" cx="341.333" cy="213.333" r="21.333"/>
	<path style="fill:#303C42;" d="M341.354,128c-40.333,0-59.292,33.198-63.688,50.75c-1.417,5.688,2.042,11.438,7.729,12.896
		c5.604,1.417,11.479-1.99,12.958-7.677c0.375-1.417,9.396-34.635,43-34.635s42.625,33.219,42.979,34.583
		c1.208,4.854,5.563,8.083,10.354,8.083c0.854,0,1.729-0.104,2.583-0.323c5.729-1.427,9.188-7.219,7.771-12.927
		C400.646,161.198,381.688,128,341.354,128z"/>
</g>
<linearGradient id="SVGID_1_" gradientUnits="userSpaceOnUse" x1="-45.5785" y1="639.5551" x2="-23.8277" y2="629.4137" gradientTransform="matrix(21.3333 0 0 -21.3333 996.3334 13791.667)">
	<stop  offset="0" style="stop-color:#FFFFFF;stop-opacity:0.2"/>
	<stop  offset="1" style="stop-color:#FFFFFF;stop-opacity:0"/>
</linearGradient>
<path style="fill:url(#SVGID_1_);" d="M256,0C114.833,0,0,114.844,0,256s114.833,256,256,256s256-114.844,256-256S397.167,0,256,0z"
	/>
<g>
</g>
<g>
</g>
<g>
</g>
<g>
</g>
<g>
</g>
<g>
</g>
<g>
</g>
<g>
</g>
<g>
</g>
<g>
</g>
<g>
</g>
<g>
</g>
<g>
</g>
<g>
</g>
<g>
</g>
</svg>
