<svg height="512" viewBox="0 0 64 64" width="512" xmlns="http://www.w3.org/2000/svg"><g id="Data_mining" data-name="Data mining"><path fill="#fff" d="m38 11h2v8h-2z"/><path fill="#fff" d="m30 8h2v11h-2z"/><path fill="#fff" d="m22 11h2v8h-2z"/><path fill="#fff" d="m42.05 37.121-18.85 18.85a2 2 0 0 0 0 2.828 2.047 2.047 0 0 0 2.828 0l18.851-18.849z"/><path fill="#fff" d="m14 15h2v4h-2z"/><path fill="#fff" d="m33.12 25.219-.617.124.1.034a13.063 13.063 0 0 1 5.081 3.141l2.24 2.239 2.822-2.822a10.981 10.981 0 0 0 -9.626-2.716z"/><path fill="#fff" d="m38.515 33.586a1 1 0 0 1 0-1.414l-2.24-2.24a11.051 11.051 0 0 0 -4.3-2.657l-3.675-1.226a1 1 0 0 1 .12-1.929l4.309-.862a12.95 12.95 0 0 1 11.425 3.276l.019-.019a1 1 0 0 1 1.414 0l1.413 1.414v-23.929h-40v52h13.873a3.975 3.975 0 0 1 .914-1.443l18.849-18.85zm-8.515-5.586a1 1 0 0 1 0 2h-12a1 1 0 0 1 0-2zm-21-8a1 1 0 0 1 1-1h2v-5a1 1 0 0 1 1-1h4a1 1 0 0 1 1 1v5h2v-9a1 1 0 0 1 1-1h4a1 1 0 0 1 1 1v9h2v-12a1 1 0 0 1 1-1h4a1 1 0 0 1 1 1v12h2v-9a1 1 0 0 1 1-1h4a1 1 0 0 1 1 1v9h2a1 1 0 0 1 0 2h-34a1 1 0 0 1 -1-1zm6 9a1 1 0 0 1 -1 1h-2a1 1 0 0 1 0-2h2a1 1 0 0 1 1 1zm9 19h-12a1 1 0 0 1 0-2h12a1 1 0 0 1 0 2zm6-6h-18a1 1 0 0 1 0-2h18a1 1 0 0 1 0 2zm5-6h-23a1 1 0 0 1 0-2h23a1 1 0 0 1 0 2z"/><path fill="#fff" d="m47 42.071-.707-.707-14.637 14.636h15.344z"/><path fill="#fff" d="m50.389 29.11h1v4.001h-1z" transform="matrix(.707 -.707 .707 .707 -7.094 45.096)"/><path fill="#fff" d="m56.623 49.393.034.1.124-.618a10.975 10.975 0 0 0 -2.716-9.63l-2.823 2.822 2.24 2.24a13.052 13.052 0 0 1 3.141 5.086z"/><path fill="#fff" d="m44 29h6.001v12h-6.001z" transform="matrix(.707 -.707 .707 .707 -10.983 43.485)"/></g></svg>